<svg xmlns="http://www.w3.org/2000/svg" width="24" height="24" fill="none" viewBox="0 0 24 24"><path fill="url(#paint0_linear_16947_116)" d="M3.58746 15.3532L14.646 4.29353L19.7067 9.35418L8.64834 20.4137L4.70369 19.2977L3.58746 15.3532Z"/><path fill="url(#paint1_linear_16947_116)" d="M3.94103 14.9997C3.5347 15.4061 3.2491 15.9172 3.116 16.4762L2.02041 21.0777C1.96009 21.3311 2.03552 21.5976 2.21968 21.7817C2.40385 21.9659 2.67037 22.0413 2.92373 21.981L7.52498 20.8855C8.08418 20.7523 8.59546 20.4666 9.00191 20.0601C9.00191 20.0601 7.17792 19.6506 5.76436 18.237C4.34949 16.8221 3.94103 14.9997 3.94103 14.9997Z"/><path fill="url(#paint2_linear_16947_116)" d="M20.9518 3.0481C19.5543 1.65058 17.2885 1.65064 15.891 3.04825L13.5853 5.35413L18.6459 10.4148L20.952 8.10861C22.3493 6.71112 22.3493 4.4455 20.9518 3.0481Z"/><path fill="url(#paint3_linear_16947_116)" d="M12.7798 6.16085L14.9007 4.03878C14.9007 4.03878 15.3097 5.86192 16.724 7.27622C18.1381 8.69035 19.9614 9.09944 19.9614 9.09944L17.8407 11.2213C17.8407 11.2213 16.0167 10.8117 14.6032 9.39818C13.1883 7.98329 12.7798 6.16085 12.7798 6.16085Z"/><defs><linearGradient id="paint0_linear_16947_116" x1="13.137" x2="15.444" y1="8.468" y2="14.709" gradientUnits="userSpaceOnUse"><stop stop-color="#FFA43D"/><stop offset="1" stop-color="#FB5937"/></linearGradient><linearGradient id="paint1_linear_16947_116" x1=".997" x2="6.044" y1="16.951" y2="21.967" gradientUnits="userSpaceOnUse"><stop offset=".255" stop-color="#FFD394"/><stop offset="1" stop-color="#FF921F"/></linearGradient><linearGradient id="paint2_linear_16947_116" x1="20.24" x2="17.138" y1="3.751" y2="6.668" gradientUnits="userSpaceOnUse"><stop stop-color="#F97DBD"/><stop offset="1" stop-color="#DD3CE2"/></linearGradient><linearGradient id="paint3_linear_16947_116" x1="16.495" x2="11.42" y1="8.955" y2="6.736" gradientUnits="userSpaceOnUse"><stop stop-color="#FF921F"/><stop offset="1" stop-color="#FFE994"/></linearGradient></defs></svg>